# xmcd CD database file
#
# Track frame offsets:
#	150
#	20364
#	40245
#	59567
#	81105
#	98666
#	118022
#	133613
#	155120
#	177895
#	199588
#	219602
#	239498
#	259984
#	281889
#	301926
#
# Disc length: 4317 seconds
#
# Revision: 1
# Processed by: cddbd v1.4PL0 Copyright (c) Steve Scherf et al.
# Submitted via: Feurio! 1.65 - http://www.feurio.com
#
DISCID=e910db10
DTITLE=Los Embajadores Del Ballenato - Grandes Exitos
DYEAR=1900
DGENRE=
TTITLE0=El Santo Cachon
TTITLE1=Donde Estaras
TTITLE2=Se Le Moja La Canoa
TTITLE3=Te Quiero
TTITLE4=La Pedigueña
TTITLE5=Tomando Y Tomando
TTITLE6=La Lira
TTITLE7=Un Macho Como Yo
TTITLE8=Amiga Mia
TTITLE9=Sindicado De Amor
TTITLE10=El Borracho
TTITLE11=Usted Es La Culpable
TTITLE12=Esperando Tu Amor
TTITLE13=Pa' Mis Seguidores
TTITLE14=La Juntera
TTITLE15=Tomando Por Ella
EXTD=
EXTT0=
EXTT1=
EXTT2=
EXTT3=
EXTT4=
EXTT5=
EXTT6=
EXTT7=
EXTT8=
EXTT9=
EXTT10=
EXTT11=
EXTT12=
EXTT13=
EXTT14=
EXTT15=
PLAYORDER=
